<?xml version="1.0" standalone="no"?>
<!DOCTYPE svg PUBLIC "-//W3C//DTD SVG 20010904//EN"
 "http://www.w3.org/TR/2001/REC-SVG-20010904/DTD/svg10.dtd">
<svg version="1.0" xmlns="http://www.w3.org/2000/svg"
 width="136.000000pt" height="136.000000pt" viewBox="0 0 136.000000 136.000000"
 preserveAspectRatio="xMidYMid meet">
<metadata>
Created by potrace 1.11, written by Peter Selinger 2001-2013
</metadata>
<g transform="translate(0.000000,136.000000) scale(0.100000,-0.100000)"
fill="#000000" stroke="none">
<path d="M340 1006 l0 -164 -37 -28 c-21 -15 -40 -30 -43 -33 -3 -4 -27 -24
-55 -46 -27 -21 -52 -42 -55 -45 -3 -3 -38 -31 -77 -63 l-73 -59 23 -40 c12
-22 26 -40 30 -40 7 0 276 218 367 296 20 17 56 47 80 66 24 19 72 59 106 88
34 28 67 52 72 52 6 0 70 -49 143 -109 176 -143 383 -314 437 -360 24 -20 46
-35 49 -35 4 1 17 20 30 41 l23 40 -121 99 c-66 54 -131 107 -142 118 -12 10
-51 42 -87 71 -36 29 -123 101 -193 159 -71 58 -132 106 -137 106 -5 0 -44
-29 -87 -64 l-78 -64 -3 89 -3 89 -84 0 -85 0 0 -164z"/>
<path d="M654 868 c-16 -13 -127 -100 -246 -195 l-218 -173 0 -155 0 -155 490
0 490 0 0 154 0 155 -197 157 c-109 87 -219 175 -244 196 l-47 38 -28 -22z
m120 -304 c3 -9 6 -51 6 -94 0 -92 2 -90 -110 -90 -62 0 -79 3 -84 16 -12 31
-7 172 7 177 6 3 49 6 93 6 66 1 83 -2 88 -15z"/>
</g>
</svg>
