<svg width="30" height="28" viewBox="0 0 30 28" fill="none" xmlns="http://www.w3.org/2000/svg">
<path d="M13.7497 27.4991C6.16863 27.4991 0 21.3307 0 13.7497C0 6.16863 6.16863 0 13.7497 0C16.3858 0 18.9506 0.751167 21.1668 2.17362C21.6019 2.45377 21.7294 3.03374 21.4492 3.46997C21.1682 3.90621 20.5894 4.03232 20.1531 3.7524C18.2406 2.52357 16.0258 1.87494 13.7497 1.87494C7.20223 1.87494 1.87494 7.20223 1.87494 13.7497C1.87494 20.2969 7.20223 25.6241 13.7497 25.6241C20.2969 25.6241 25.6241 20.2969 25.6241 13.7497C25.6241 13.3583 25.6054 12.9708 25.5692 12.5897C25.5193 12.0734 25.8967 11.6159 26.4117 11.566C26.9292 11.5184 27.3853 11.8935 27.4355 12.4085C27.4778 12.8497 27.4991 13.2972 27.4991 13.7497C27.4991 21.3307 21.3307 27.4991 13.7497 27.4991Z" fill="white"/>
<path d="M15.312 16.8745C15.0721 16.8745 14.832 16.7832 14.6496 16.5996L9.02477 10.9748C8.65857 10.6084 8.65857 10.0147 9.02477 9.64846C9.39097 9.28226 9.98467 9.28226 10.3509 9.64846L15.3133 14.6109L28.399 1.525C28.7655 1.1588 29.3592 1.1588 29.7254 1.525C30.0916 1.8912 30.0916 2.4849 29.7254 2.8511L15.9757 16.6008C15.7919 16.7832 15.5521 16.8745 15.312 16.8745Z" fill="white"/>
</svg>
