<svg width="40" height="40" viewBox="0 0 40 40" fill="none" xmlns="http://www.w3.org/2000/svg">
<path d="M36.5882 28.0445C36.0208 27.7329 35.3084 27.9401 34.9969 28.5073C34.6852 29.0746 34.8924 29.7871 35.4597 30.0986C36.8556 30.8655 37.6562 31.7157 37.6562 32.4311C37.6562 33.3062 36.4164 34.6625 32.9365 35.8447C29.4986 37.0129 24.9043 37.6561 20 37.6561C15.0957 37.6561 10.5014 37.0129 7.06352 35.8447C3.58359 34.6626 2.34375 33.3062 2.34375 32.4311C2.34375 31.7157 3.14438 30.8655 4.54031 30.0986C5.10758 29.787 5.31477 29.0745 5.00313 28.5072C4.69148 27.94 3.97922 27.7328 3.4118 28.0444C1.85539 28.8995 0 30.3547 0 32.4311C0 34.0229 1.09469 36.2922 6.30953 38.064C9.98391 39.3123 14.8459 39.9998 20 39.9998C25.1541 39.9998 30.0161 39.3123 33.6905 38.064C38.9053 36.2922 40 34.0229 40 32.4311C40 30.3547 38.1446 28.8995 36.5882 28.0445Z" fill="#FFD800"/>
<path d="M11.1525 34.15C13.5314 34.822 16.6735 35.1922 20 35.1922C23.3265 35.1922 26.4686 34.8221 28.8475 34.15C31.7579 33.3279 33.2336 32.1377 33.2336 30.6129C33.2336 29.0879 31.7579 27.8979 28.8475 27.0758C28.2014 26.8933 27.4988 26.7332 26.7517 26.5967C26.346 27.2976 25.921 28.0191 25.4765 28.7614C26.3034 28.8854 27.0797 29.0375 27.7847 29.2171C29.9266 29.7627 30.7091 30.3768 30.8699 30.6129C30.709 30.8491 29.9267 31.4632 27.7848 32.0087C25.7575 32.525 23.1492 32.8196 20.4021 32.8459C20.2691 32.8557 20.135 32.8613 20 32.8613C19.8649 32.8613 19.731 32.8557 19.5978 32.8459C16.8507 32.8196 14.2424 32.5251 12.2152 32.0087C10.0733 31.4632 9.29087 30.849 9.13001 30.6129C9.29087 30.3768 10.0734 29.7627 12.2152 29.2171C12.9202 29.0376 13.6966 28.8854 14.5235 28.7614C14.0791 28.0192 13.654 27.2975 13.2483 26.5967C12.5013 26.7333 11.7985 26.8933 11.1525 27.0758C8.24212 27.8979 6.76642 29.088 6.76642 30.6129C6.76642 32.1377 8.24212 33.3278 11.1525 34.15Z" fill="#FFD800"/>
<path d="M20 30.5183C21.0432 30.5183 21.9908 29.9867 22.535 29.0963C26.3483 22.8575 30.8938 14.6352 30.8938 10.8937C30.8938 4.88687 26.0069 0 20 0C13.9931 0 9.10626 4.88687 9.10626 10.8937C9.10626 14.6352 13.6518 22.8575 17.465 29.0963C18.0092 29.9867 18.9569 30.5183 20 30.5183ZM15.6213 10.1457C15.6213 7.73141 17.5856 5.76719 20 5.76719C22.4144 5.76719 24.3787 7.73141 24.3787 10.1457C24.3787 12.5601 22.4144 14.5243 20 14.5243C17.5856 14.5243 15.6213 12.5602 15.6213 10.1457Z" fill="#FFD800"/>
</svg>
