<svg width="40" height="44" viewBox="0 0 40 44" fill="none" xmlns="http://www.w3.org/2000/svg">
<path d="M39.5914 25.2841C40.8932 14.3259 38.9659 7.40768 35.4896 4.27857L35.4914 4.27676C29.8805 -1.0669 10.9313 -1.85781 4.21855 4.51676C1.204 7.63495 0.142176 12.2113 0.0258121 17.8768C-0.090552 23.5441 -0.228734 34.1605 9.66403 37.0405H9.67312L9.66403 41.4387C9.66403 41.4387 9.59675 43.2205 10.7349 43.5787C12.0368 44.0005 12.6259 43.1733 16.675 38.3369C23.4459 38.9242 28.6459 37.5787 29.2368 37.3823C30.6041 36.9241 38.3405 35.9005 39.5914 25.2841ZM17.3422 35.2423C17.3422 35.2423 13.0568 40.586 11.724 41.9733C11.2877 42.4242 10.8095 42.3823 10.8168 41.4878C10.8168 40.9005 10.8495 34.186 10.8495 34.186C2.46218 31.7823 2.95673 22.7423 3.04764 18.0132C3.13855 13.2822 4.00401 9.40768 6.55674 6.79858C12.4459 1.27675 29.0586 2.5113 33.2914 6.48949C38.4659 11.0768 36.6241 24.0368 36.635 24.4786C35.5714 33.3405 29.3023 33.9023 28.1495 34.286C27.6568 34.4496 23.0841 35.626 17.3422 35.2423Z" fill="#8E24AA"/>
<path d="M19.7132 7.83691C19.0131 7.83691 19.0131 8.92783 19.7132 8.93692C25.1441 8.97874 29.6168 12.7642 29.6659 19.7079C29.6659 20.4406 30.7386 20.4315 30.7296 19.6988H30.7277C30.6696 12.2169 25.7859 7.87873 19.7132 7.83691Z" fill="#8E24AA"/>
<path d="M26.8568 18.5573C26.8405 19.281 27.9114 19.3155 27.9205 18.5828C28.0095 14.4573 25.4659 11.0591 20.6859 10.7009C19.9859 10.65 19.9132 11.75 20.6113 11.8009C24.7568 12.1155 26.9405 14.9446 26.8568 18.5573Z" fill="#8E24AA"/>
<path d="M25.7114 23.2492C24.8132 22.7292 23.8986 23.0529 23.5204 23.5638L22.7295 24.5874C22.3277 25.1074 21.5768 25.0383 21.5768 25.0383C16.0968 23.5892 14.6313 17.8547 14.6313 17.8547C14.6313 17.8547 14.564 17.0783 15.0659 16.6619L16.055 15.8437C16.5495 15.451 16.8622 14.5056 16.3586 13.5765C15.0131 11.1455 14.1095 10.3074 13.6495 9.66372C13.1659 9.05826 12.4386 8.9219 11.6822 9.33099H11.6659C10.0931 10.251 8.3713 11.9728 8.92221 13.7455C9.86221 15.6146 11.5895 21.5729 17.095 26.0747C19.6822 28.2038 23.7768 30.3856 25.515 30.8892L25.5314 30.9147C27.2441 31.4856 28.9095 29.6965 29.7986 28.0765V28.0638C30.1932 27.2801 30.0623 26.5383 29.4859 26.0529C28.4641 25.0565 26.9223 23.9565 25.7114 23.2492Z" fill="#8E24AA"/>
<path d="M21.435 14.7584C23.1823 14.8602 24.0295 15.7729 24.1204 17.6475C24.1532 18.3802 25.2168 18.3293 25.1841 17.5966C25.0677 15.1493 23.7914 13.7857 21.4932 13.6584C20.7932 13.6166 20.7277 14.7166 21.435 14.7584Z" fill="#8E24AA"/>
</svg>
