<svg width="44" height="45" viewBox="0 0 44 45" fill="none" xmlns="http://www.w3.org/2000/svg">
<path d="M0.940309 44.1919C0.692162 44.1919 0.450757 44.0937 0.271727 43.9127C0.0357166 43.674 -0.0553158 43.3274 0.0333565 43.0034L2.90627 32.5124C1.11765 29.278 0.174625 25.6192 0.175974 21.9051C0.181031 9.82644 10.0105 0 22.0882 0C27.9463 0.0023601 33.4507 2.28424 37.5879 6.42453C41.7245 10.5652 44.0017 16.0692 44 21.9226C43.9946 34.0016 34.1651 43.8287 22.0882 43.8287C22.0882 43.8287 22.0791 43.8287 22.0787 43.8287C18.551 43.8274 15.0537 42.9676 11.9397 41.3392L1.17868 44.1612C1.09978 44.1817 1.01954 44.1919 0.940309 44.1919Z" fill="#E5E5E5"/>
<path d="M0.940308 43.2516L3.91538 32.3874C2.08024 29.2077 1.11495 25.6008 1.1163 21.9055C1.12102 10.3454 10.5284 0.94043 22.0881 0.94043C27.6978 0.94279 32.9631 3.12622 36.9227 7.08916C40.882 11.0521 43.0617 16.3198 43.0596 21.9224C43.0546 33.4822 33.6459 42.8885 22.0881 42.8885C22.0875 42.8885 22.0885 42.8885 22.0881 42.8885H22.079C18.5692 42.8871 15.1208 42.0068 12.0577 40.3362L0.940308 43.2516ZM12.5726 36.5408L13.2095 36.9181C15.8851 38.5061 18.9529 39.346 22.0814 39.3477H22.0881C31.6951 39.3477 39.5144 31.5297 39.5185 21.921C39.5202 17.2646 37.709 12.8859 34.418 9.59222C31.1266 6.29853 26.7507 4.48361 22.0946 4.48159C12.4798 4.48159 4.66084 12.2986 4.65713 21.9069C4.65578 25.1996 5.57689 28.4059 7.32202 31.1807L7.73672 31.8402L5.97541 38.2705L12.5726 36.5408Z" fill="white"/>
<path d="M1.66959 42.5194L4.54183 32.0308C2.76973 28.9613 1.83816 25.4788 1.83918 21.9121C1.84356 10.7522 10.9256 1.67285 22.0844 1.67285C27.5005 1.67521 32.5839 3.78312 36.4055 7.60884C40.2282 11.4346 42.3321 16.5199 42.3301 21.9279C42.3253 33.0881 33.243 42.1685 22.0855 42.1685C22.0844 42.1685 22.0858 42.1685 22.0855 42.1685H22.0764C18.6883 42.1671 15.3588 41.3168 12.402 39.7052L1.66959 42.5194Z" fill="#64B161"/>
<path d="M0.940308 43.2516L3.91538 32.3874C2.08024 29.2077 1.11495 25.6008 1.1163 21.9055C1.12102 10.3454 10.5284 0.94043 22.0881 0.94043C27.6978 0.94279 32.9631 3.12622 36.9227 7.08916C40.882 11.0521 43.0617 16.3198 43.0596 21.9224C43.0546 33.4822 33.6459 42.8885 22.0881 42.8885C22.0875 42.8885 22.0885 42.8885 22.0881 42.8885H22.079C18.5692 42.8871 15.1208 42.0068 12.0577 40.3362L0.940308 43.2516ZM12.5726 36.5408L13.2095 36.9181C15.8851 38.5061 18.9529 39.346 22.0814 39.3477H22.0881C31.6951 39.3477 39.5144 31.5297 39.5185 21.921C39.5202 17.2646 37.709 12.8859 34.418 9.59222C31.1266 6.29853 26.7507 4.48361 22.0946 4.48159C12.4798 4.48159 4.66084 12.2986 4.65713 21.9069C4.65578 25.1996 5.57689 28.4059 7.32202 31.1807L7.73672 31.8402L5.97541 38.2705L12.5726 36.5408Z" fill="white"/>
<path fill-rule="evenodd" clip-rule="evenodd" d="M16.8467 13.1404C16.4543 12.2678 16.0409 12.2503 15.6673 12.2351C15.3619 12.222 15.0122 12.2227 14.6633 12.2227C14.314 12.2227 13.7462 12.3542 13.2661 12.8784C12.7856 13.4027 11.4316 14.6704 11.4316 17.2487C11.4316 19.8272 13.3096 22.3185 13.5716 22.6685C13.8335 23.0181 17.1967 28.478 22.5227 30.5785C26.9493 32.3243 27.8498 31.977 28.8107 31.8897C29.7716 31.8024 31.9109 30.622 32.3475 29.3985C32.7844 28.1749 32.7844 27.1264 32.6533 26.9069C32.5221 26.6887 32.1728 26.5576 31.6489 26.2956C31.125 26.0336 28.5487 24.7656 28.0683 24.5909C27.5878 24.4159 27.2386 24.329 26.8893 24.8536C26.5396 25.3775 25.5362 26.5576 25.2304 26.9069C24.9246 27.2572 24.6188 27.301 24.0949 27.0387C23.571 26.776 21.8832 26.2231 19.8811 24.4379C18.3234 23.0491 17.2715 21.3337 16.9657 20.809C16.6603 20.2851 16.9607 20.0262 17.196 19.7399C17.6198 19.2244 18.3309 18.2976 18.5055 17.9483C18.6802 17.5983 18.5928 17.2925 18.462 17.0302C18.3309 16.7682 17.3123 14.1768 16.8467 13.1404Z" fill="white"/>
</svg>
