<svg width="80" height="74" viewBox="0 0 80 74" fill="none" xmlns="http://www.w3.org/2000/svg">
<path d="M36.6657 73.3305C16.4497 73.3305 0 56.8815 0 36.6656C0 16.4496 16.4497 0 36.6657 0C43.6955 0 50.5349 2.0031 56.4448 5.7963C57.605 6.54335 57.945 8.08992 57.1979 9.25321C56.4484 10.4165 54.9049 10.7528 53.7416 10.0064C48.6417 6.7295 42.7355 4.99982 36.6657 4.99982C19.2059 4.99982 4.99984 19.2059 4.99984 36.6656C4.99984 54.1247 19.2059 68.3307 36.6657 68.3307C54.1249 68.3307 68.331 54.1247 68.331 36.6656C68.331 35.6219 68.2809 34.5886 68.1845 33.5724C68.0515 32.1955 69.0579 30.9755 70.4311 30.8424C71.8111 30.7155 73.0275 31.7158 73.1612 33.089C73.2741 34.2658 73.3308 35.459 73.3308 36.6656C73.3308 56.8815 56.8818 73.3305 36.6657 73.3305Z" fill="#07B200"/>
<path d="M40.8319 44.9984C40.1923 44.9984 39.552 44.7549 39.0656 44.2654L24.066 29.2659C23.0895 28.2888 23.0895 26.7056 24.066 25.7291C25.0426 24.7525 26.6258 24.7525 27.6023 25.7291L40.8355 38.9622L75.7307 4.06662C76.7078 3.0901 78.291 3.0901 79.2676 4.06662C80.2441 5.04315 80.2441 6.62635 79.2676 7.60288L42.6018 44.2684C42.1118 44.7549 41.4721 44.9984 40.8319 44.9984Z" fill="#07B200"/>
</svg>
